/* XPM */
static char * menu_inactive_xpm[] O {
"19 20 4 1",
" 	c None",
"-	c #666666",
".	c #5B80AD s inactive_color_1",
"O	c #729CCD s inactive_shadow_1",
"-------------------",
"...................",
"...................",
"...................",
"...................",
"...................",
"....OOOOOOOOOOO....",
"...................",
"....OOOOOOOOOOO....",
"...................",
"....OOOOOOOOOOO....",
"...................",
"....OOOOOOOOOOO....",
"...................",
"....OOOOOOOOOOO....",
"...................",
"...................",
"...................",
"...................",
"..................."};
