/* XPM */
static char * menu_pressed_xpm[] O {
"19 20 4 1",
" 	c None",
"-	c #666666",
".	c #5B80AD s active_shadow_1",
"O	c #729CCD s active_text_color",
"-------------------",
"...................",
"...................",
"...................",
"...................",
"...................",
"....OOOOOOOOOOO....",
"...................",
"....OOOOOOOOOOO....",
"...................",
"....OOOOOOOOOOO....",
"...................",
"....OOOOOOOOOOO....",
"...................",
"....OOOOOOOOOOO....",
"...................",
"...................",
"...................",
"...................",
"..................."};
