/* XPM */
static char * menu_active_xpm[] O {
"19 20 4 1",
" 	c None",
"-	c #666666",
".	c #5B80AD s active_color_1",
"O	c #729CCD s active_text_color",
"-------------------",
"...................",
"...................",
"...................",
"...................",
"...................",
"....OOOOOOOOOOO....",
"...................",
"....OOOOOOOOOOO....",
"...................",
"....OOOOOOOOOOO....",
"...................",
"....OOOOOOOOOOO....",
"...................",
"....OOOOOOOOOOO....",
"...................",
"...................",
"...................",
"...................",
"..................."};
