/* XPM */
static char * title_1_inactive_xpm[] = {
"8 20 3 1",
" 	c None",
".	c #666666",
"+	c #5B80AD s inactive_color_1",
"........",
"++++++++",
"++++++++",
"++++++++",
"++++++++",
"++++++++",
"++++++++",
"++++++++",
"++++++++",
"++++++++",
"++++++++",
"++++++++",
"++++++++",
"++++++++",
"++++++++",
"++++++++",
"++++++++",
"++++++++",
"++++++++",
"++++++++"};
