/* XPM */
static char * top_right_inactive_xpm[] = {
"16 20 3 1",
" 	c None",
".	c #666666",
"+	c #5B80AD s inactive_color_1",
"................",
"+++++++++++++++.",
"+++++++++++++++.",
"+++++++++++++++.",
"+++++++++++++++.",
"+++++++++++++++.",
"+++++++++++++++.",
"+++++++++++++++.",
"+++++++++++++++.",
"+++++++++++++++.",
"+++++++++++++++.",
"+++++++++++++++.",
"+++++++++++++++.",
"+++++++++++++++.",
"+++++++++++++++.",
"+++++++++++++++.",
"+++++++++++++++.",
"+++++++++++++++.",
"+++++++++++++++.",
"+++++++++++++++."};
